<svg xmlns="http://www.w3.org/2000/svg" width="536" height="408.37" viewBox="0 0 536 408.37">
    <defs>
        <style>.a{fill:#05f26c;}.b{fill:#3f3d56;}.c{fill:#ffb8b8;}.d{fill:#d0cde1;}.e{fill:#2f2e41;}.f{fill:none;stroke:#d0cde1;stroke-miterlimit:10;stroke-width:2px;}</style>
    </defs>
    <g transform="translate(-388.646 0)">
        <path class="a" d="M584.543,563.98c13.44,14.423,14.135,35.621,14.135,35.621s-21.1-2.185-34.537-16.608-14.135-35.621-14.135-35.621S571.1,549.558,584.543,563.98Z" transform="translate(-118.995 -224.475)"/>
        <path class="a" d="M629.725,586.811C615.3,600.252,594.1,600.946,594.1,600.946s2.186-21.1,16.608-34.537,35.621-14.135,35.621-14.135S644.147,573.371,629.725,586.811Z" transform="translate(-121.864 -224.794)"/>
        <path class="b" d="M623.5,632.592H570.448a5.426,5.426,0,0,1-4.879-3.052L554.02,605.8A5.426,5.426,0,0,1,558.9,598h76.146a5.426,5.426,0,0,1,4.879,7.8L628.375,629.54A5.426,5.426,0,0,1,623.5,632.592Z" transform="translate(-119.22 -227.77)"/>
        <circle class="c" cx="44.169" cy="44.169" r="44.169" transform="translate(698.336 26.95)"/>
        <path class="c" d="M847.52,301.692s8.322,62.733-4.481,69.774,76.176,7.682,76.176,7.682-19.844-54.411-10.882-71.055Z" transform="translate(-137.982 -208.488)"/>
        <path class="d" d="M980.066,382.579l-7.4,33.7-15.647,71.291-.469,3.9-5.4,45.2-3.592,30.026-2.409,20.17c-14.644,7.526-25.257,12.722-25.257,12.722s-.913-4.577-2.385-10.433c-10.277,3.081-29.293,8.193-45.409,9.214,5.868,6.541,8.565,12.686,4.907,17.221-11.04,13.671-56.617-14.968-72.558-25.648a43.139,43.139,0,0,0-.421,7.724l-12.2-9.382,1.207-21.587,2.036-36.525,2.559-45.805a48.118,48.118,0,0,1-2.024-6.024c-3.736-13.286-8.271-39.817-11.749-62.065-2.8-17.905-4.9-33.035-5.346-36.255-.06-.42-.09-.637-.09-.637l67.531-29.84c4.8,11.13,27.209,14.476,27.209,14.476,18.566-1.279,33.12-11.07,33.12-11.07Z" transform="translate(-133.859 -211.601)"/>
        <path class="c" d="M929.585,601.869s-2.859.979-7.508,2.367c-10.277,3.081-29.293,8.193-45.409,9.214-13.875.889-25.6-1.249-27.744-10.3-.919-3.892.384-7.094,3.225-9.724,8.481-7.863,30.633-10.679,48.2-11.647,4.961-.27,9.55-.4,13.37-.444,6.487-.084,10.74.048,10.74.048l.1.4Z" transform="translate(-138.428 -226.684)"/>
        <path class="e" d="M843.066,231.34l-8.259-3.306s17.268-19.011,41.293-17.358l-6.757-7.439s16.517-6.612,31.533,10.745c7.893,9.125,17.026,19.85,22.719,31.932h8.844l-3.691,8.128,12.92,8.128-13.261-1.46a45.415,45.415,0,0,1,.36,13.482,17.443,17.443,0,0,1-6.387,11.411h0s-10.242-21.2-10.242-24.506v8.266s-8.259-7.439-8.259-12.4l-4.5,5.786-2.252-9.092-27.779,9.092,4.5-7.439-17.268,2.48,6.757-9.092s-19.52,10.745-20.271,19.837-6.464,17.707-6.464,17.707S821.294,243.738,843.066,231.34Z" transform="translate(-137.305 -202)"/>
        <path class="d" d="M1036.984,539.79c-4.5,4.877-15.647,12.223-29.161,20.176-5.027,2.955-10.379,6-15.839,9.028-13.028,7.226-26.669,14.385-37.925,20.17-14.644,7.526-25.257,12.722-25.257,12.722s-.913-4.577-2.385-10.433c-1.97-7.838-4.937-17.971-8.031-22.458-.108-.156-.216-.3-.324-.444-.9-1.183-1.808-1.874-2.7-1.874l44.7-27.708,19.317-11.977-13.917-33.222L948.007,452.1l10.535-33.522,10.589-33.7h19.845s6.571,14.343,14.974,34.345c1.255,2.991,2.553,6.109,3.874,9.328C1025.111,470.6,1046.661,529.31,1036.984,539.79Z" transform="translate(-142.77 -213.901)"/>
        <path class="c" d="M878.433,630.273c-11.04,13.671-56.617-14.968-72.558-25.648-3.472-2.325-5.538-3.8-5.538-3.8l14.584-19.449,4.619-6.157s4.133,2.192,10.241,5.76c.222.132.444.264.673.4,5.268,3.093,11.881,7.136,18.554,11.646,9.208,6.229,18.518,13.334,24.518,20.026C879.394,619.594,882.091,625.739,878.433,630.273Z" transform="translate(-135.285 -226.288)"/>
        <path class="d" d="M824.493,568.42a28.694,28.694,0,0,0-4.865.4c-13.809,2.372-17.881,14.872-19.041,23.245a43.15,43.15,0,0,0-.421,7.724l-12.2-9.382-4.445-3.418c-10.7-3.73-20.23-10.355-28.495-18.169a143.225,143.225,0,0,1-19.19-22.759A200.7,200.7,0,0,1,720.99,520.59a18.73,18.73,0,0,1-.258-15.887l15.106-33.666,22.08-49.2q.243-1.757.535-3.436c4.379-25.107,16.109-36.255,16.109-36.255h8.962l5.994,36.255,7.448,45.042-5.22,17.022-12.061,39.312,11.527,12.517Z" transform="translate(-129.998 -213.723)"/>
        <path class="b" d="M1009.7,625.564v3.646a8.008,8.008,0,0,1-.547,2.925,8.228,8.228,0,0,1-.583,1.2,8.071,8.071,0,0,1-6.937,3.94H733.41a8.071,8.071,0,0,1-6.937-3.94,8.2,8.2,0,0,1-.583-1.2,8.013,8.013,0,0,1-.547-2.925v-3.646a8.065,8.065,0,0,1,8.067-8.067H748.87v-1.7a.336.336,0,0,1,.336-.336h8.067a.336.336,0,0,1,.337.336v1.7h5.039v-1.7a.336.336,0,0,1,.336-.336h8.067a.336.336,0,0,1,.336.336v1.7h5.045v-1.7a.336.336,0,0,1,.336-.336h8.067a.336.336,0,0,1,.336.336v1.7h5.039v-1.7a.336.336,0,0,1,.336-.336h8.067a.336.336,0,0,1,.336.336v1.7h5.039v-1.7a.336.336,0,0,1,.336-.336h8.067a.336.336,0,0,1,.336.336v1.7h5.045v-1.7a.336.336,0,0,1,.336-.336h8.067a.336.336,0,0,1,.336.336v1.7h5.039v-1.7a.336.336,0,0,1,.336-.336H895.08a.336.336,0,0,1,.336.336v1.7h5.045v-1.7a.336.336,0,0,1,.336-.336h8.067a.34.34,0,0,1,.336.336v1.7h5.039v-1.7a.336.336,0,0,1,.336-.336h8.067a.336.336,0,0,1,.336.336v1.7h5.039v-1.7a.336.336,0,0,1,.336-.336h8.067a.336.336,0,0,1,.336.336v1.7H941.8v-1.7a.336.336,0,0,1,.336-.336h8.067a.334.334,0,0,1,.33.336v1.7h5.045v-1.7a.336.336,0,0,1,.336-.336h8.067a.336.336,0,0,1,.336.336v1.7h5.039v-1.7a.336.336,0,0,1,.336-.336h8.067a.336.336,0,0,1,.336.336v1.7h23.527A8.064,8.064,0,0,1,1009.7,625.564Z" transform="translate(-130.405 -228.906)"/>
        <path class="b" d="M988.818,461.894H888.842v-2.061H843.51v2.061H743.125a6.762,6.762,0,0,0-6.762,6.763V605.55a6.762,6.762,0,0,0,6.762,6.762H988.816a6.762,6.762,0,0,0,6.762-6.762V468.656a6.762,6.762,0,0,0-6.76-6.762Z" transform="translate(-131.122 -218.779)"/>
        <circle class="f" cx="15.016" cy="15.016" r="15.016" transform="translate(720.029 275.892)"/>
        <circle class="d" cx="15.016" cy="15.016" r="15.016" transform="translate(715.224 281.298)"/>
        <rect class="b" width="536" height="1" transform="translate(388.646 405)"/>
    </g>
</svg>